<svg width="28" height="18" viewBox="0 0 28 18" fill="none" xmlns="http://www.w3.org/2000/svg">
<path d="M11.3788 6.48138C11.1698 6.28026 10.8302 6.28026 10.6213 6.48138C10.4118 6.68198 10.4118 7.0081 10.6213 7.20871C10.8302 7.40983 11.1698 7.40983 11.3788 7.20871C11.5882 7.0081 11.5882 6.68198 11.3788 6.48138Z" fill="#333333"/>
<path d="M14.2142 7.35944C13.328 7.35944 12.6071 8.05169 12.6071 8.90257C12.6071 9.75345 13.328 10.4457 14.2142 10.4457C15.1004 10.4457 15.8213 9.75345 15.8213 8.90257C15.8213 8.05169 15.1004 7.35944 14.2142 7.35944ZM14.2142 9.41695C13.9188 9.41695 13.6785 9.1862 13.6785 8.90257C13.6785 8.61894 13.9188 8.38819 14.2142 8.38819C14.5096 8.38819 14.7499 8.61894 14.7499 8.90257C14.7499 9.1862 14.5096 9.41695 14.2142 9.41695Z" fill="#333333"/>
<path d="M14.2144 4.78751C13.6155 4.78751 13.0365 4.9037 12.4934 5.13291C12.2226 5.24726 12.0995 5.55074 12.2186 5.81081C12.3376 6.07088 12.6537 6.18898 12.9246 6.07474C13.3309 5.90324 13.7649 5.81626 14.2144 5.81626C15.9867 5.81626 17.4287 7.20076 17.4287 8.90253C17.4287 10.6043 15.9867 11.9888 14.2144 11.9888C12.442 11.9888 11.0001 10.6043 11.0001 8.90253C11.0001 8.88494 11 8.86776 11.0005 8.85016C11.0073 8.56618 10.7731 8.33059 10.4773 8.32401C10.1811 8.31691 9.9362 8.54226 9.92935 8.8263C9.9287 8.85191 9.92865 8.87691 9.92865 8.90253C9.92865 11.1716 11.8512 13.0176 14.2144 13.0176C16.5775 13.0176 18.5001 11.1716 18.5001 8.90253C18.5001 6.63351 16.5775 4.78751 14.2144 4.78751Z" fill="#333333"/>
<path d="M27.7944 8.99051C24.3913 5.29115 19.3382 2.21564 14.2143 2.21564C9.08969 2.21564 4.03668 5.29192 0.634192 8.99051C0.438335 9.20346 0.459335 9.52849 0.681067 9.71655C0.902853 9.90461 1.24142 9.88444 1.43723 9.67154C1.55139 9.54742 1.66834 9.42377 1.78678 9.30088C4.43401 13.1414 9.23284 15.5895 14.2143 15.5895C19.1957 15.5895 23.9946 13.1414 26.6418 9.30088C26.7602 9.42382 26.8772 9.54747 26.9913 9.67154C27.1866 9.88378 27.5251 9.90517 27.7475 9.71655C27.9692 9.52849 27.9902 9.20341 27.7944 8.99051ZM14.2143 14.5607C9.50455 14.5607 4.97476 12.2111 2.55237 8.54351C4.46101 6.74777 8.87112 3.24439 14.2143 3.24439C19.5575 3.24439 23.9676 6.74777 25.8762 8.54346C23.4538 12.2111 18.924 14.5607 14.2143 14.5607Z" fill="#333333"/>
<rect x="-0.180964" y="-0.67555" width="2.13583" height="18.9463" rx="1.06792" transform="matrix(0.871383 0.490604 -0.509456 0.860497 18.2008 0.99454)" fill="black" stroke="white"/>
</svg>
