<svg width="148" height="48" viewBox="0 0 148 48" fill="none" xmlns="http://www.w3.org/2000/svg">
<g clip-path="url(#clip0_5978_27064)">
<path d="M0.0478516 8.96289H5.78225V21.0582H11.3328V8.96289H16.8833V39.1468H11.2442V26.2546H5.59836V39.1468H0.0478516V8.96289Z" fill="white" stroke="white" stroke-width="0.14"/>
<path d="M24.2728 10.4004H18.627V37.7171H24.2728V10.4004Z" fill="white" stroke="white" stroke-width="0.14"/>
<path d="M32.2133 21.3711H25.9409V26.7445H32.2133V21.3711Z" fill="white" stroke="white" stroke-width="0.14"/>
<path d="M33.6914 10.4883V37.6279H47.3055V32.343H38.4383V10.5768L33.6914 10.4883Z" fill="white" stroke="white" stroke-width="0.14"/>
<path d="M54.6337 10.4004H48.9878V37.7171H54.6337V10.4004Z" fill="white" stroke="white" stroke-width="0.14"/>
<path d="M56.6357 37.389V10.3379L67.4712 23.4139V10.4264H72.6675V37.7908L61.8321 25.566V37.4775L56.6357 37.389Z" fill="white" stroke="white" stroke-width="0.14"/>
<path d="M89.4551 10.4062H74.8535V37.614L89.6322 37.7025V32.152H80.1384V26.7786H86.3155V21.3166H80.0499V16.2973H89.5436L89.4551 10.4062Z" fill="white" stroke="white" stroke-width="0.14"/>
<path d="M145.063 1.66797L140.384 6.72813C140.105 6.44209 139.819 6.16286 139.526 5.89725L145.063 1.66797Z" fill="white"/>
<path d="M132.763 13.3613C133.036 13.6201 133.294 13.8789 133.546 14.1513C133.294 13.8789 133.036 13.6201 132.763 13.3613Z" fill="white"/>
<path d="M133.893 14.5471C136.025 17.0166 137.245 20.1425 137.35 23.4029C137.454 26.6634 136.438 29.8612 134.469 32.4625C132.501 35.0638 129.7 36.9112 126.533 37.6963C123.367 38.4814 120.027 38.1567 117.071 36.7764L116.854 36.9398L109.709 42.2247C114.249 45.1552 119.521 46.7505 124.924 46.8286C137.585 46.8286 148.924 34.6652 146.922 20.9966C146.043 14.983 143.782 10.1952 140.411 6.69467C140.132 6.40863 139.846 6.1294 139.553 5.86379C135.33 2.04313 129.569 0 122.751 0C109.75 0 103.791 10.0726 102.422 11.3326C100.25 13.3348 91.4233 13.4983 91.4233 13.4983V33.0034C91.4233 33.0034 101.585 35.1691 102.586 36.3337C104.041 37.9425 105.659 39.3963 107.414 40.672L107.469 40.6175L113.476 34.3655C110.823 31.9537 109.176 28.6308 108.864 25.0592C108.552 21.4876 109.597 17.9295 111.792 15.0942C113.986 12.2589 117.168 10.3547 120.704 9.76101C124.24 9.16735 127.869 9.92789 130.869 11.891" fill="white"/>
<path d="M133.75 23.6738L116.54 36.4843L109.239 41.9326L101.067 48.0007L107.823 40.9791L113.871 34.734L122.254 26.0234H113.251L131.319 12.1914C132.129 12.7637 132.876 13.4213 133.546 14.1528L124.754 23.6874L133.75 23.6738Z" fill="white"/>
<path d="M142.243 40.8618C142.535 40.86 142.824 40.9156 143.094 41.0253C143.348 41.1417 143.579 41.3032 143.776 41.502C144.014 41.7419 144.194 42.0333 144.303 42.3538C144.411 42.6743 144.444 43.0153 144.4 43.3507C144.356 43.6861 144.236 44.007 144.048 44.2886C143.861 44.5702 143.612 44.8052 143.319 44.9753C142.982 45.1716 142.599 45.2749 142.209 45.2749C141.819 45.2749 141.436 45.1716 141.099 44.9753C140.763 44.7857 140.485 44.5078 140.295 44.1717C140.1 43.8373 139.998 43.4559 140.003 43.0684C140.001 42.7752 140.058 42.4847 140.17 42.2139C140.282 41.943 140.448 41.6975 140.657 41.4918C140.866 41.2861 141.114 41.1243 141.386 41.0161C141.659 40.9079 141.95 40.8555 142.243 40.8618ZM142.243 41.2909C141.93 41.29 141.622 41.3723 141.351 41.5293C141.077 41.6925 140.853 41.9282 140.704 42.2103C140.544 42.4801 140.461 42.7888 140.466 43.1025C140.464 43.3361 140.509 43.5677 140.597 43.7838C140.686 43.9999 140.817 44.1962 140.983 44.3611C141.148 44.5259 141.345 44.6562 141.561 44.7441C141.778 44.832 142.01 44.8759 142.243 44.8732C142.554 44.8751 142.86 44.7941 143.13 44.6384C143.399 44.4828 143.622 44.2583 143.776 43.9878C143.933 43.7193 144.015 43.4136 144.014 43.1025C144.015 42.7871 143.933 42.4769 143.776 42.2035C143.622 41.9377 143.401 41.7169 143.135 41.5633C142.872 41.3859 142.567 41.2824 142.25 41.2637L142.243 41.2909ZM141.719 44.2466H141.242V41.8766H142.339C142.488 41.8714 142.637 41.8993 142.774 41.9583C142.884 42.0068 142.977 42.0875 143.04 42.1899C143.101 42.2977 143.132 42.4201 143.129 42.544C143.13 42.7026 143.072 42.8559 142.965 42.9731C142.84 43.096 142.677 43.1728 142.502 43.191C142.597 43.2256 142.682 43.2843 142.747 43.3613C142.839 43.4851 142.924 43.6147 142.999 43.7495L143.272 44.2194H142.679L142.488 43.8448C142.421 43.7139 142.344 43.5886 142.257 43.4702C142.21 43.3974 142.144 43.3386 142.066 43.3C141.993 43.2703 141.914 43.2564 141.835 43.2591H141.712L141.719 44.2466ZM141.719 42.2784V42.905H142.1C142.235 42.913 142.371 42.8897 142.495 42.8369C142.542 42.8113 142.58 42.7724 142.604 42.725C142.628 42.6777 142.638 42.6241 142.631 42.5713C142.633 42.5279 142.623 42.485 142.603 42.4467C142.583 42.4084 142.552 42.3762 142.516 42.3533C142.403 42.2921 142.276 42.2637 142.148 42.2716L141.719 42.2784Z" fill="white"/>
</g>
<defs>
<clipPath id="clip0_5978_27064">
<rect width="147.153" height="48" fill="white"/>
</clipPath>
</defs>
</svg>
